<mxfile host="app.diagrams.net" modified="2024-02-05T09:47:04.026Z" agent="Mozilla/5.0 (Macintosh; Intel Mac OS X 10_15_7) AppleWebKit/537.36 (KHTML, like Gecko) Chrome/121.0.0.0 Safari/537.36" etag="jBNJEmNUVgleRMZy6qa0" version="23.1.1" type="github" pages="2">
  <diagram name="main" id="g6JCRZ8Pn_MGMuNseYOX">
    <mxGraphModel dx="1050" dy="4101" grid="1" gridSize="10" guides="1" tooltips="1" connect="1" arrows="1" fold="1" page="1" pageScale="1" pageWidth="827" pageHeight="1169" math="0" shadow="0">
      <root>
        <mxCell id="0" />
        <mxCell id="1" parent="0" />
        <mxCell id="9PntcW0s7CdXju5omIoT-1" value="&lt;img height=&quot;346&quot; width=&quot;520&quot; src=&quot;https://i.namu.wiki/i/YuMgn9KKCnJMgc_KAWb3hiBNPbzxIDctMpP9MOg7QvUHWPttKBRECoT-PzfmibDaGshdNHJy3TGN744mvwOyp1PQ6jRI-5xJ9N80ju0eg0CbbI9s646fY-uCfHY-lblWLKEaoLcZbAxT71gr4db8wg.webp&quot;&gt;" style="rounded=0;whiteSpace=wrap;html=1;strokeColor=none;" parent="1" vertex="1">
          <mxGeometry x="10" y="-3410" width="800" height="260" as="geometry" />
        </mxCell>
        <mxCell id="9PntcW0s7CdXju5omIoT-3" value="제니&lt;span style=&quot;white-space: pre;&quot;&gt;&#x9;&lt;/span&gt;" style="rounded=1;whiteSpace=wrap;html=1;fillColor=#F7A7BB;strokeColor=none;" parent="1" vertex="1">
          <mxGeometry x="110" y="-3230" width="120" height="60" as="geometry" />
        </mxCell>
        <mxCell id="9PntcW0s7CdXju5omIoT-4" value="&lt;font style=&quot;font-size: 25px;&quot; color=&quot;#ffffff&quot;&gt;BLACKPINK&lt;/font&gt;" style="rounded=0;whiteSpace=wrap;html=1;fillColor=#000000;" parent="1" vertex="1">
          <mxGeometry x="10" y="-3470" width="800" height="60" as="geometry" />
        </mxCell>
        <mxCell id="9PntcW0s7CdXju5omIoT-5" value="" style="shape=flexArrow;endArrow=classic;html=1;rounded=0;fillColor=#007FFF;strokeColor=#36393d;" parent="1" edge="1">
          <mxGeometry width="50" height="50" relative="1" as="geometry">
            <mxPoint x="897" y="-3440.77" as="sourcePoint" />
            <mxPoint x="827" y="-3440.77" as="targetPoint" />
          </mxGeometry>
        </mxCell>
        <mxCell id="9PntcW0s7CdXju5omIoT-6" value="&lt;font style=&quot;font-size: 30px;&quot;&gt;&lt;b&gt;Header&lt;/b&gt;&lt;/font&gt;" style="text;html=1;align=center;verticalAlign=middle;resizable=0;points=[];autosize=1;strokeColor=none;fillColor=none;" parent="1" vertex="1">
          <mxGeometry x="890" y="-3465" width="130" height="50" as="geometry" />
        </mxCell>
        <mxCell id="9PntcW0s7CdXju5omIoT-7" value="지수" style="rounded=1;whiteSpace=wrap;html=1;fillColor=#F7A7BB;strokeColor=none;" parent="1" vertex="1">
          <mxGeometry x="270" y="-3230" width="120" height="60" as="geometry" />
        </mxCell>
        <mxCell id="9PntcW0s7CdXju5omIoT-8" value="로제" style="rounded=1;whiteSpace=wrap;html=1;fillColor=#F7A7BB;strokeColor=none;" parent="1" vertex="1">
          <mxGeometry x="440" y="-3230" width="120" height="60" as="geometry" />
        </mxCell>
        <mxCell id="9PntcW0s7CdXju5omIoT-9" value="리사" style="rounded=1;whiteSpace=wrap;html=1;fillColor=#f7a7bb;strokeColor=none;" parent="1" vertex="1">
          <mxGeometry x="600" y="-3230" width="120" height="60" as="geometry" />
        </mxCell>
        <mxCell id="9PntcW0s7CdXju5omIoT-11" value="" style="whiteSpace=wrap;html=1;aspect=fixed;strokeColor=none;" parent="1" vertex="1">
          <mxGeometry x="10" y="-3150" width="800" height="800" as="geometry" />
        </mxCell>
        <mxCell id="9PntcW0s7CdXju5omIoT-13" value="&lt;font style=&quot;font-size: 25px;&quot; color=&quot;#ffffff&quot;&gt;footer : 유튜브로고, 깃헙, 블로그 로고 / 와이지나 블랙핑크 로고&lt;/font&gt;" style="rounded=0;whiteSpace=wrap;html=1;fillColor=#000000;" parent="1" vertex="1">
          <mxGeometry x="10" y="-2350" width="800" height="60" as="geometry" />
        </mxCell>
        <mxCell id="9PntcW0s7CdXju5omIoT-14" value="" style="rounded=1;whiteSpace=wrap;html=1;fillColor=#000000;arcSize=5;" parent="1" vertex="1">
          <mxGeometry x="97" y="-3130" width="634" height="370" as="geometry" />
        </mxCell>
        <mxCell id="9PntcW0s7CdXju5omIoT-17" value="" style="rounded=1;whiteSpace=wrap;html=1;" parent="1" vertex="1">
          <mxGeometry x="235" y="-3090" width="190" height="40" as="geometry" />
        </mxCell>
        <mxCell id="9PntcW0s7CdXju5omIoT-18" value="&lt;font color=&quot;#ffffff&quot; style=&quot;font-size: 20px;&quot;&gt;&lt;b style=&quot;&quot;&gt;닉네임&lt;/b&gt;&lt;/font&gt;" style="text;html=1;strokeColor=none;fillColor=none;align=center;verticalAlign=middle;whiteSpace=wrap;rounded=0;" parent="1" vertex="1">
          <mxGeometry x="130" y="-3090" width="80" height="40" as="geometry" />
        </mxCell>
        <mxCell id="9PntcW0s7CdXju5omIoT-19" value="&lt;font color=&quot;#ffffff&quot; style=&quot;font-size: 20px;&quot;&gt;내용&lt;/font&gt;" style="text;html=1;strokeColor=none;fillColor=none;align=center;verticalAlign=middle;whiteSpace=wrap;rounded=0;" parent="1" vertex="1">
          <mxGeometry x="130" y="-3020" width="80" height="40" as="geometry" />
        </mxCell>
        <mxCell id="9PntcW0s7CdXju5omIoT-20" value="" style="rounded=1;whiteSpace=wrap;html=1;" parent="1" vertex="1">
          <mxGeometry x="235" y="-3020" width="455" height="180" as="geometry" />
        </mxCell>
        <mxCell id="9PntcW0s7CdXju5omIoT-21" value="&lt;font color=&quot;#ffffff&quot; style=&quot;font-size: 20px;&quot;&gt;등록하기&lt;/font&gt;" style="rounded=1;whiteSpace=wrap;html=1;arcSize=26;fillColor=#F7A7BB;" parent="1" vertex="1">
          <mxGeometry x="570" y="-2830" width="120" height="60" as="geometry" />
        </mxCell>
        <mxCell id="9PntcW0s7CdXju5omIoT-22" value="&lt;font style=&quot;font-size: 20px;&quot;&gt;멤버 선택하기&amp;nbsp;&lt;/font&gt;" style="rounded=0;whiteSpace=wrap;html=1;" parent="1" vertex="1">
          <mxGeometry x="450" y="-3090" width="240" height="40" as="geometry" />
        </mxCell>
        <mxCell id="9PntcW0s7CdXju5omIoT-25" value="" style="shape=flexArrow;endArrow=classic;html=1;rounded=0;fillColor=#007FFF;strokeColor=#36393d;" parent="1" edge="1">
          <mxGeometry width="50" height="50" relative="1" as="geometry">
            <mxPoint x="907" y="-2320.77" as="sourcePoint" />
            <mxPoint x="837" y="-2320.77" as="targetPoint" />
          </mxGeometry>
        </mxCell>
        <mxCell id="9PntcW0s7CdXju5omIoT-26" value="&lt;font size=&quot;1&quot; style=&quot;&quot;&gt;&lt;b style=&quot;font-size: 30px;&quot;&gt;Footer&lt;/b&gt;&lt;/font&gt;" style="text;html=1;align=center;verticalAlign=middle;resizable=0;points=[];autosize=1;strokeColor=none;fillColor=none;" parent="1" vertex="1">
          <mxGeometry x="905" y="-2345" width="120" height="50" as="geometry" />
        </mxCell>
        <mxCell id="9PntcW0s7CdXju5omIoT-27" value="" style="rounded=1;whiteSpace=wrap;html=1;fillColor=#000000;arcSize=6;" parent="1" vertex="1">
          <mxGeometry x="97" y="-2730" width="633" height="220" as="geometry" />
        </mxCell>
        <mxCell id="9PntcW0s7CdXju5omIoT-28" value="" style="ellipse;whiteSpace=wrap;html=1;aspect=fixed;" parent="1" vertex="1">
          <mxGeometry x="110" y="-2720" width="70" height="70" as="geometry" />
        </mxCell>
        <mxCell id="9PntcW0s7CdXju5omIoT-29" value="" style="rounded=1;whiteSpace=wrap;html=1;" parent="1" vertex="1">
          <mxGeometry x="189" y="-2660" width="521" height="130" as="geometry" />
        </mxCell>
        <mxCell id="9PntcW0s7CdXju5omIoT-32" value="&lt;font color=&quot;#ffffff&quot;&gt;&lt;span style=&quot;font-size: 20px;&quot;&gt;&lt;b&gt;닉네임&lt;/b&gt;&lt;/span&gt;&lt;/font&gt;" style="text;html=1;strokeColor=none;fillColor=none;align=center;verticalAlign=middle;whiteSpace=wrap;rounded=0;" parent="1" vertex="1">
          <mxGeometry x="200" y="-2705" width="80" height="40" as="geometry" />
        </mxCell>
        <mxCell id="9PntcW0s7CdXju5omIoT-33" value="&lt;font color=&quot;#ffffff&quot;&gt;&lt;span style=&quot;font-size: 20px;&quot;&gt;&lt;b&gt;작성 날짜 / 시간&lt;/b&gt;&lt;/span&gt;&lt;/font&gt;" style="text;html=1;strokeColor=none;fillColor=none;align=center;verticalAlign=middle;whiteSpace=wrap;rounded=0;" parent="1" vertex="1">
          <mxGeometry x="485" y="-2705" width="226" height="40" as="geometry" />
        </mxCell>
        <mxCell id="9PntcW0s7CdXju5omIoT-50" value="" style="shape=flexArrow;endArrow=classic;html=1;rounded=0;fillColor=#007FFF;strokeColor=#36393d;" parent="1" edge="1">
          <mxGeometry width="50" height="50" relative="1" as="geometry">
            <mxPoint x="810" y="-2685.77" as="sourcePoint" />
            <mxPoint x="740" y="-2685.77" as="targetPoint" />
          </mxGeometry>
        </mxCell>
        <mxCell id="9PntcW0s7CdXju5omIoT-51" value="&lt;b style=&quot;border-color: var(--border-color); font-size: 30px;&quot;&gt;component 3&lt;/b&gt;" style="text;html=1;align=center;verticalAlign=middle;resizable=0;points=[];autosize=1;strokeColor=none;fillColor=none;" parent="1" vertex="1">
          <mxGeometry x="827" y="-2710" width="210" height="50" as="geometry" />
        </mxCell>
        <mxCell id="9PntcW0s7CdXju5omIoT-52" value="" style="shape=flexArrow;endArrow=classic;html=1;rounded=0;fillColor=#007FFF;strokeColor=#36393d;" parent="1" edge="1">
          <mxGeometry width="50" height="50" relative="1" as="geometry">
            <mxPoint x="810" y="-3105.77" as="sourcePoint" />
            <mxPoint x="740" y="-3105.77" as="targetPoint" />
          </mxGeometry>
        </mxCell>
        <mxCell id="9PntcW0s7CdXju5omIoT-53" value="&lt;b style=&quot;border-color: var(--border-color); font-size: 30px;&quot;&gt;component 2&lt;/b&gt;" style="text;html=1;align=center;verticalAlign=middle;resizable=0;points=[];autosize=1;strokeColor=none;fillColor=none;" parent="1" vertex="1">
          <mxGeometry x="815" y="-3130" width="210" height="50" as="geometry" />
        </mxCell>
        <mxCell id="9PntcW0s7CdXju5omIoT-54" value="" style="shape=flexArrow;endArrow=classic;html=1;rounded=0;fillColor=#007FFF;strokeColor=#36393d;" parent="1" edge="1">
          <mxGeometry width="50" height="50" relative="1" as="geometry">
            <mxPoint x="801" y="-3315.77" as="sourcePoint" />
            <mxPoint x="731" y="-3315.77" as="targetPoint" />
          </mxGeometry>
        </mxCell>
        <mxCell id="9PntcW0s7CdXju5omIoT-55" value="&lt;font size=&quot;1&quot; style=&quot;&quot;&gt;&lt;b style=&quot;font-size: 30px;&quot;&gt;component 1&lt;/b&gt;&lt;/font&gt;" style="text;html=1;align=center;verticalAlign=middle;resizable=0;points=[];autosize=1;strokeColor=none;fillColor=none;" parent="1" vertex="1">
          <mxGeometry x="815" y="-3340" width="210" height="50" as="geometry" />
        </mxCell>
        <mxCell id="9PntcW0s7CdXju5omIoT-60" value="" style="group" parent="1" vertex="1" connectable="0">
          <mxGeometry x="120" y="-2110" width="570" height="562" as="geometry" />
        </mxCell>
        <mxCell id="9PntcW0s7CdXju5omIoT-37" value="" style="rounded=1;whiteSpace=wrap;html=1;fillColor=#000000;" parent="9PntcW0s7CdXju5omIoT-60" vertex="1">
          <mxGeometry width="570" height="562" as="geometry" />
        </mxCell>
        <mxCell id="9PntcW0s7CdXju5omIoT-40" value="" style="ellipse;whiteSpace=wrap;html=1;aspect=fixed;" parent="9PntcW0s7CdXju5omIoT-60" vertex="1">
          <mxGeometry x="24.5" y="87.5" width="115" height="115" as="geometry" />
        </mxCell>
        <mxCell id="9PntcW0s7CdXju5omIoT-41" value="&lt;font color=&quot;#ffffff&quot;&gt;&lt;span style=&quot;font-size: 20px;&quot;&gt;&lt;b&gt;닉네임&lt;/b&gt;&lt;/span&gt;&lt;/font&gt;" style="text;html=1;strokeColor=none;fillColor=none;align=center;verticalAlign=middle;whiteSpace=wrap;rounded=0;" parent="9PntcW0s7CdXju5omIoT-60" vertex="1">
          <mxGeometry x="164.5" y="125" width="80" height="40" as="geometry" />
        </mxCell>
        <mxCell id="9PntcW0s7CdXju5omIoT-42" value="&lt;font color=&quot;#ffffff&quot;&gt;&lt;span style=&quot;font-size: 20px;&quot;&gt;&lt;b&gt;작성 날짜 / 시간&lt;/b&gt;&lt;/span&gt;&lt;/font&gt;" style="text;html=1;strokeColor=none;fillColor=none;align=center;verticalAlign=middle;whiteSpace=wrap;rounded=0;" parent="9PntcW0s7CdXju5omIoT-60" vertex="1">
          <mxGeometry x="294.5" y="125" width="226" height="40" as="geometry" />
        </mxCell>
        <mxCell id="9PntcW0s7CdXju5omIoT-43" value="" style="rounded=1;whiteSpace=wrap;html=1;" parent="9PntcW0s7CdXju5omIoT-60" vertex="1">
          <mxGeometry x="24.5" y="215" width="521" height="255" as="geometry" />
        </mxCell>
        <mxCell id="9PntcW0s7CdXju5omIoT-44" value="&lt;font color=&quot;#ffffff&quot; style=&quot;font-size: 20px;&quot;&gt;수정하기&lt;/font&gt;" style="rounded=1;whiteSpace=wrap;html=1;arcSize=26;fillColor=#F7A7BB;" parent="9PntcW0s7CdXju5omIoT-60" vertex="1">
          <mxGeometry x="155" y="490" width="120" height="60" as="geometry" />
        </mxCell>
        <mxCell id="9PntcW0s7CdXju5omIoT-45" value="&lt;font color=&quot;#ffffff&quot; style=&quot;font-size: 20px;&quot;&gt;삭제하기&lt;/font&gt;" style="rounded=1;whiteSpace=wrap;html=1;arcSize=26;fillColor=#F7A7BB;" parent="9PntcW0s7CdXju5omIoT-60" vertex="1">
          <mxGeometry x="295" y="490" width="120" height="60" as="geometry" />
        </mxCell>
        <mxCell id="9PntcW0s7CdXju5omIoT-47" value="&lt;b style=&quot;border-color: var(--border-color); color: rgb(255, 255, 255); font-size: 20px;&quot;&gt;To. JENNI&lt;/b&gt;" style="rounded=1;whiteSpace=wrap;html=1;fillColor=#F7A7BB;" parent="9PntcW0s7CdXju5omIoT-60" vertex="1">
          <mxGeometry x="100" y="17" width="370" height="43" as="geometry" />
        </mxCell>
        <mxCell id="9PntcW0s7CdXju5omIoT-62" value="" style="group" parent="1" vertex="1" connectable="0">
          <mxGeometry x="766" y="-3080" width="475" height="45" as="geometry" />
        </mxCell>
        <mxCell id="9PntcW0s7CdXju5omIoT-23" value="" style="shape=flexArrow;endArrow=classic;html=1;rounded=0;exitX=0.846;exitY=0.611;exitDx=0;exitDy=0;exitPerimeter=0;" parent="9PntcW0s7CdXju5omIoT-62" edge="1">
          <mxGeometry width="50" height="50" relative="1" as="geometry">
            <mxPoint x="219.93000000000006" y="19.230000000000473" as="sourcePoint" />
            <mxPoint y="19.25" as="targetPoint" />
          </mxGeometry>
        </mxCell>
        <mxCell id="9PntcW0s7CdXju5omIoT-24" value="&lt;font style=&quot;font-size: 30px;&quot;&gt;input select -option&lt;/font&gt;" style="text;html=1;align=center;verticalAlign=middle;resizable=0;points=[];autosize=1;strokeColor=none;fillColor=none;" parent="9PntcW0s7CdXju5omIoT-62" vertex="1">
          <mxGeometry x="234" y="-5" width="280" height="50" as="geometry" />
        </mxCell>
        <mxCell id="9PntcW0s7CdXju5omIoT-63" value="&lt;font style=&quot;font-size: 30px;&quot;&gt;&lt;b&gt;MODAL / PAGES&lt;/b&gt;&lt;/font&gt;" style="text;html=1;strokeColor=none;fillColor=none;align=center;verticalAlign=middle;whiteSpace=wrap;rounded=0;" parent="1" vertex="1">
          <mxGeometry x="241.5" y="-2160" width="345" height="30" as="geometry" />
        </mxCell>
        <mxCell id="9PntcW0s7CdXju5omIoT-66" value="" style="shape=flexArrow;endArrow=classic;html=1;rounded=0;endWidth=48.888888888888886;endSize=13.71111111111111;width=44.44444444444444;" parent="1" edge="1">
          <mxGeometry width="50" height="50" relative="1" as="geometry">
            <mxPoint x="920" y="-1790" as="sourcePoint" />
            <mxPoint x="710" y="-1790" as="targetPoint" />
          </mxGeometry>
        </mxCell>
        <mxCell id="9PntcW0s7CdXju5omIoT-68" value="&lt;font size=&quot;1&quot; style=&quot;&quot;&gt;&lt;b style=&quot;font-size: 30px;&quot;&gt;letter 마다 각각의 페이지로 이동 / id값에 따라 이동&lt;/b&gt;&lt;/font&gt;" style="text;html=1;align=center;verticalAlign=middle;resizable=0;points=[];autosize=1;strokeColor=none;fillColor=none;" parent="1" vertex="1">
          <mxGeometry x="930" y="-1820" width="640" height="50" as="geometry" />
        </mxCell>
        <mxCell id="9PntcW0s7CdXju5omIoT-70" value="" style="shape=flexArrow;endArrow=classic;startArrow=classic;html=1;rounded=0;fillColor=#B9E0A5;" parent="1" edge="1">
          <mxGeometry width="100" height="100" relative="1" as="geometry">
            <mxPoint x="400" y="-2180" as="sourcePoint" />
            <mxPoint x="400" y="-2460" as="targetPoint" />
          </mxGeometry>
        </mxCell>
      </root>
    </mxGraphModel>
  </diagram>
  <diagram id="MQQHWCqian2706_KdEmg" name="페이지-2">
    <mxGraphModel dx="1632" dy="1256" grid="0" gridSize="10" guides="1" tooltips="1" connect="1" arrows="1" fold="1" page="0" pageScale="1" pageWidth="827" pageHeight="1169" math="0" shadow="0">
      <root>
        <mxCell id="0" />
        <mxCell id="1" style="" parent="0" />
        <mxCell id="xf8kpTMM6X4b4hCwrlSo-1" value="&lt;font style=&quot;font-size: 18px;&quot;&gt;&lt;b&gt;App&lt;/b&gt;&lt;/font&gt;" style="rounded=1;whiteSpace=wrap;html=1;" vertex="1" parent="1">
          <mxGeometry x="350" y="30" width="120" height="60" as="geometry" />
        </mxCell>
        <mxCell id="xf8kpTMM6X4b4hCwrlSo-2" value="&lt;font style=&quot;font-size: 18px;&quot;&gt;&lt;b style=&quot;&quot;&gt;GlobalStyle&lt;/b&gt;&lt;/font&gt;" style="rounded=1;whiteSpace=wrap;html=1;" vertex="1" parent="1">
          <mxGeometry x="240" y="150" width="120" height="60" as="geometry" />
        </mxCell>
        <mxCell id="xf8kpTMM6X4b4hCwrlSo-50" style="edgeStyle=orthogonalEdgeStyle;rounded=0;orthogonalLoop=1;jettySize=auto;html=1;exitX=0.5;exitY=1;exitDx=0;exitDy=0;" edge="1" parent="1">
          <mxGeometry relative="1" as="geometry">
            <mxPoint x="520" y="241" as="targetPoint" />
            <mxPoint x="520" y="211" as="sourcePoint" />
          </mxGeometry>
        </mxCell>
        <mxCell id="xf8kpTMM6X4b4hCwrlSo-3" value="&lt;font style=&quot;font-size: 18px;&quot;&gt;&lt;b&gt;Router&lt;/b&gt;&lt;/font&gt;" style="rounded=1;whiteSpace=wrap;html=1;" vertex="1" parent="1">
          <mxGeometry x="460" y="150" width="120" height="60" as="geometry" />
        </mxCell>
        <mxCell id="xf8kpTMM6X4b4hCwrlSo-51" style="edgeStyle=orthogonalEdgeStyle;rounded=0;orthogonalLoop=1;jettySize=auto;html=1;exitX=0.5;exitY=1;exitDx=0;exitDy=0;" edge="1" parent="1">
          <mxGeometry relative="1" as="geometry">
            <mxPoint x="520" y="350" as="targetPoint" />
            <mxPoint x="520" y="315" as="sourcePoint" />
          </mxGeometry>
        </mxCell>
        <mxCell id="xf8kpTMM6X4b4hCwrlSo-4" value="&lt;span style=&quot;font-size: 18px;&quot;&gt;&lt;b&gt;Layout&lt;/b&gt;&lt;/span&gt;" style="rounded=1;whiteSpace=wrap;html=1;" vertex="1" parent="1">
          <mxGeometry x="460" y="255" width="120" height="60" as="geometry" />
        </mxCell>
        <mxCell id="xf8kpTMM6X4b4hCwrlSo-5" value="&lt;font style=&quot;font-size: 18px;&quot;&gt;&lt;b&gt;Routes&lt;/b&gt;&lt;/font&gt;" style="rounded=1;whiteSpace=wrap;html=1;" vertex="1" parent="1">
          <mxGeometry x="460" y="360" width="120" height="60" as="geometry" />
        </mxCell>
        <mxCell id="xf8kpTMM6X4b4hCwrlSo-20" value="" style="group" vertex="1" connectable="0" parent="1">
          <mxGeometry x="570" y="585" width="560" height="160" as="geometry" />
        </mxCell>
        <mxCell id="xf8kpTMM6X4b4hCwrlSo-63" value="" style="group" vertex="1" connectable="0" parent="xf8kpTMM6X4b4hCwrlSo-20">
          <mxGeometry width="560" height="160" as="geometry" />
        </mxCell>
        <mxCell id="xf8kpTMM6X4b4hCwrlSo-55" style="edgeStyle=orthogonalEdgeStyle;rounded=0;orthogonalLoop=1;jettySize=auto;html=1;exitX=0.5;exitY=1;exitDx=0;exitDy=0;" edge="1" parent="xf8kpTMM6X4b4hCwrlSo-63" source="xf8kpTMM6X4b4hCwrlSo-7">
          <mxGeometry relative="1" as="geometry">
            <mxPoint x="60" y="100" as="targetPoint" />
          </mxGeometry>
        </mxCell>
        <mxCell id="xf8kpTMM6X4b4hCwrlSo-7" value="&lt;font style=&quot;font-size: 18px;&quot;&gt;&lt;b&gt;JENNIE&lt;/b&gt;&lt;/font&gt;" style="rounded=1;whiteSpace=wrap;html=1;" vertex="1" parent="xf8kpTMM6X4b4hCwrlSo-63">
          <mxGeometry width="120" height="60" as="geometry" />
        </mxCell>
        <mxCell id="xf8kpTMM6X4b4hCwrlSo-8" value="&lt;font style=&quot;font-size: 18px;&quot;&gt;&lt;b&gt;JISOO&lt;/b&gt;&lt;/font&gt;" style="rounded=1;whiteSpace=wrap;html=1;" vertex="1" parent="xf8kpTMM6X4b4hCwrlSo-63">
          <mxGeometry x="150" width="120" height="60" as="geometry" />
        </mxCell>
        <mxCell id="xf8kpTMM6X4b4hCwrlSo-9" value="&lt;font style=&quot;font-size: 18px;&quot;&gt;&lt;b&gt;ROSE&lt;/b&gt;&lt;/font&gt;" style="rounded=1;whiteSpace=wrap;html=1;" vertex="1" parent="xf8kpTMM6X4b4hCwrlSo-63">
          <mxGeometry x="297" width="120" height="60" as="geometry" />
        </mxCell>
        <mxCell id="xf8kpTMM6X4b4hCwrlSo-10" value="&lt;font style=&quot;font-size: 18px;&quot;&gt;&lt;b&gt;LISA&lt;/b&gt;&lt;/font&gt;" style="rounded=1;whiteSpace=wrap;html=1;" vertex="1" parent="xf8kpTMM6X4b4hCwrlSo-63">
          <mxGeometry x="440" width="120" height="60" as="geometry" />
        </mxCell>
        <mxCell id="xf8kpTMM6X4b4hCwrlSo-16" value="&lt;font style=&quot;font-size: 18px;&quot;&gt;&lt;b&gt;DetailPage&lt;/b&gt;&lt;/font&gt;" style="rounded=1;whiteSpace=wrap;html=1;" vertex="1" parent="xf8kpTMM6X4b4hCwrlSo-63">
          <mxGeometry y="100" width="120" height="60" as="geometry" />
        </mxCell>
        <mxCell id="xf8kpTMM6X4b4hCwrlSo-17" value="&lt;font style=&quot;font-size: 18px;&quot;&gt;&lt;b&gt;DetailPage&lt;/b&gt;&lt;/font&gt;" style="rounded=1;whiteSpace=wrap;html=1;" vertex="1" parent="xf8kpTMM6X4b4hCwrlSo-63">
          <mxGeometry x="150" y="100" width="120" height="60" as="geometry" />
        </mxCell>
        <mxCell id="xf8kpTMM6X4b4hCwrlSo-56" style="edgeStyle=orthogonalEdgeStyle;rounded=0;orthogonalLoop=1;jettySize=auto;html=1;exitX=0.5;exitY=1;exitDx=0;exitDy=0;entryX=0.5;entryY=0;entryDx=0;entryDy=0;" edge="1" parent="xf8kpTMM6X4b4hCwrlSo-63" source="xf8kpTMM6X4b4hCwrlSo-8" target="xf8kpTMM6X4b4hCwrlSo-17">
          <mxGeometry relative="1" as="geometry" />
        </mxCell>
        <mxCell id="xf8kpTMM6X4b4hCwrlSo-18" value="&lt;font style=&quot;font-size: 18px;&quot;&gt;&lt;b&gt;DetailPage&lt;/b&gt;&lt;/font&gt;" style="rounded=1;whiteSpace=wrap;html=1;" vertex="1" parent="xf8kpTMM6X4b4hCwrlSo-63">
          <mxGeometry x="297" y="100" width="120" height="60" as="geometry" />
        </mxCell>
        <mxCell id="xf8kpTMM6X4b4hCwrlSo-57" style="edgeStyle=orthogonalEdgeStyle;rounded=0;orthogonalLoop=1;jettySize=auto;html=1;exitX=0.5;exitY=1;exitDx=0;exitDy=0;entryX=0.5;entryY=0;entryDx=0;entryDy=0;" edge="1" parent="xf8kpTMM6X4b4hCwrlSo-63" source="xf8kpTMM6X4b4hCwrlSo-9" target="xf8kpTMM6X4b4hCwrlSo-18">
          <mxGeometry relative="1" as="geometry" />
        </mxCell>
        <mxCell id="xf8kpTMM6X4b4hCwrlSo-19" value="&lt;b style=&quot;border-color: var(--border-color); font-size: 18px;&quot;&gt;DetailPage&lt;/b&gt;" style="rounded=1;whiteSpace=wrap;html=1;" vertex="1" parent="xf8kpTMM6X4b4hCwrlSo-63">
          <mxGeometry x="440" y="100" width="120" height="60" as="geometry" />
        </mxCell>
        <mxCell id="xf8kpTMM6X4b4hCwrlSo-58" style="edgeStyle=orthogonalEdgeStyle;rounded=0;orthogonalLoop=1;jettySize=auto;html=1;exitX=0.5;exitY=1;exitDx=0;exitDy=0;entryX=0.5;entryY=0;entryDx=0;entryDy=0;" edge="1" parent="xf8kpTMM6X4b4hCwrlSo-63" source="xf8kpTMM6X4b4hCwrlSo-10" target="xf8kpTMM6X4b4hCwrlSo-19">
          <mxGeometry relative="1" as="geometry" />
        </mxCell>
        <mxCell id="xf8kpTMM6X4b4hCwrlSo-39" value="&lt;font style=&quot;font-size: 18px;&quot;&gt;&lt;b&gt;Pages&lt;/b&gt;&lt;/font&gt;" style="rounded=1;whiteSpace=wrap;html=1;fillColor=#F7A7BB;strokeColor=none;fontColor=#FFFFFF;" vertex="1" parent="1">
          <mxGeometry x="705" y="492" width="290" height="40" as="geometry" />
        </mxCell>
        <mxCell id="xf8kpTMM6X4b4hCwrlSo-59" value="" style="endArrow=classic;html=1;rounded=0;exitX=0.5;exitY=1;exitDx=0;exitDy=0;" edge="1" parent="1">
          <mxGeometry width="50" height="50" relative="1" as="geometry">
            <mxPoint x="520" y="420" as="sourcePoint" />
            <mxPoint x="280" y="470" as="targetPoint" />
          </mxGeometry>
        </mxCell>
        <mxCell id="xf8kpTMM6X4b4hCwrlSo-62" value="" style="group" vertex="1" connectable="0" parent="1">
          <mxGeometry x="70" y="480" width="420" height="270" as="geometry" />
        </mxCell>
        <mxCell id="xf8kpTMM6X4b4hCwrlSo-41" style="edgeStyle=orthogonalEdgeStyle;rounded=0;orthogonalLoop=1;jettySize=auto;html=1;exitX=0.5;exitY=1;exitDx=0;exitDy=0;" edge="1" parent="xf8kpTMM6X4b4hCwrlSo-62" source="xf8kpTMM6X4b4hCwrlSo-6">
          <mxGeometry relative="1" as="geometry">
            <mxPoint x="210" y="100" as="targetPoint" />
          </mxGeometry>
        </mxCell>
        <mxCell id="xf8kpTMM6X4b4hCwrlSo-6" value="&lt;font style=&quot;font-size: 18px;&quot;&gt;&lt;b&gt;MainPage&lt;/b&gt;&lt;/font&gt;" style="rounded=1;whiteSpace=wrap;html=1;" vertex="1" parent="xf8kpTMM6X4b4hCwrlSo-62">
          <mxGeometry x="150" width="120" height="60" as="geometry" />
        </mxCell>
        <mxCell id="xf8kpTMM6X4b4hCwrlSo-11" value="&lt;font style=&quot;font-size: 18px;&quot;&gt;&lt;b&gt;Nav&lt;/b&gt;&lt;/font&gt;" style="rounded=1;whiteSpace=wrap;html=1;" vertex="1" parent="xf8kpTMM6X4b4hCwrlSo-62">
          <mxGeometry y="105" width="120" height="60" as="geometry" />
        </mxCell>
        <mxCell id="xf8kpTMM6X4b4hCwrlSo-12" value="&lt;font style=&quot;font-size: 18px;&quot;&gt;&lt;b&gt;LetterForm&lt;/b&gt;&lt;/font&gt;" style="rounded=1;whiteSpace=wrap;html=1;" vertex="1" parent="xf8kpTMM6X4b4hCwrlSo-62">
          <mxGeometry x="150" y="105" width="120" height="60" as="geometry" />
        </mxCell>
        <mxCell id="xf8kpTMM6X4b4hCwrlSo-13" value="&lt;font style=&quot;font-size: 18px;&quot;&gt;&lt;b&gt;LetterList&lt;/b&gt;&lt;/font&gt;" style="rounded=1;whiteSpace=wrap;html=1;" vertex="1" parent="xf8kpTMM6X4b4hCwrlSo-62">
          <mxGeometry x="300" y="105" width="120" height="60" as="geometry" />
        </mxCell>
        <mxCell id="xf8kpTMM6X4b4hCwrlSo-14" value="&lt;font style=&quot;font-size: 18px;&quot;&gt;&lt;b&gt;LetterItem&lt;/b&gt;&lt;/font&gt;" style="rounded=1;whiteSpace=wrap;html=1;" vertex="1" parent="xf8kpTMM6X4b4hCwrlSo-62">
          <mxGeometry x="300" y="210" width="120" height="60" as="geometry" />
        </mxCell>
        <mxCell id="xf8kpTMM6X4b4hCwrlSo-52" value="" style="endArrow=classic;html=1;rounded=0;exitX=0.5;exitY=1;exitDx=0;exitDy=0;" edge="1" parent="xf8kpTMM6X4b4hCwrlSo-62" source="xf8kpTMM6X4b4hCwrlSo-6">
          <mxGeometry width="50" height="50" relative="1" as="geometry">
            <mxPoint x="330" y="80" as="sourcePoint" />
            <mxPoint x="60" y="100" as="targetPoint" />
          </mxGeometry>
        </mxCell>
        <mxCell id="xf8kpTMM6X4b4hCwrlSo-53" value="" style="endArrow=classic;html=1;rounded=0;exitX=0.5;exitY=1;exitDx=0;exitDy=0;" edge="1" parent="xf8kpTMM6X4b4hCwrlSo-62">
          <mxGeometry width="50" height="50" relative="1" as="geometry">
            <mxPoint x="210" y="60" as="sourcePoint" />
            <mxPoint x="360" y="100" as="targetPoint" />
          </mxGeometry>
        </mxCell>
        <mxCell id="xf8kpTMM6X4b4hCwrlSo-54" style="edgeStyle=orthogonalEdgeStyle;rounded=0;orthogonalLoop=1;jettySize=auto;html=1;exitX=0.5;exitY=1;exitDx=0;exitDy=0;" edge="1" parent="xf8kpTMM6X4b4hCwrlSo-62">
          <mxGeometry relative="1" as="geometry">
            <mxPoint x="359.5" y="205" as="targetPoint" />
            <mxPoint x="359.5" y="165" as="sourcePoint" />
          </mxGeometry>
        </mxCell>
        <mxCell id="xf8kpTMM6X4b4hCwrlSo-64" value="" style="endArrow=classic;html=1;rounded=0;exitX=0.5;exitY=1;exitDx=0;exitDy=0;" edge="1" parent="1">
          <mxGeometry width="50" height="50" relative="1" as="geometry">
            <mxPoint x="520" y="420" as="sourcePoint" />
            <mxPoint x="770" y="470" as="targetPoint" />
          </mxGeometry>
        </mxCell>
        <mxCell id="xf8kpTMM6X4b4hCwrlSo-65" value="" style="endArrow=classic;html=1;rounded=0;exitX=0.5;exitY=1;exitDx=0;exitDy=0;" edge="1" parent="1">
          <mxGeometry width="50" height="50" relative="1" as="geometry">
            <mxPoint x="414" y="90" as="sourcePoint" />
            <mxPoint x="310" y="140" as="targetPoint" />
          </mxGeometry>
        </mxCell>
        <mxCell id="xf8kpTMM6X4b4hCwrlSo-66" value="" style="endArrow=classic;html=1;rounded=0;" edge="1" parent="1">
          <mxGeometry width="50" height="50" relative="1" as="geometry">
            <mxPoint x="410" y="90" as="sourcePoint" />
            <mxPoint x="520" y="140" as="targetPoint" />
          </mxGeometry>
        </mxCell>
      </root>
    </mxGraphModel>
  </diagram>
</mxfile>
